<mxfile host="app.diagrams.net" modified="2021-04-13T17:11:05.695Z" agent="5.0 (Windows NT 10.0; Win64; x64) AppleWebKit/537.36 (KHTML, like Gecko) Chrome/89.0.4389.114 Safari/537.36 Edg/89.0.774.75" etag="-QxbwyDWhX0WLebDTm2Z" version="14.1.2" type="github">
  <diagram id="0dHdGBZlcimvSgmyDxel" name="Page-1">
    <mxGraphModel dx="948" dy="548" grid="1" gridSize="10" guides="1" tooltips="1" connect="1" arrows="1" fold="1" page="1" pageScale="1" pageWidth="850" pageHeight="1100" math="0" shadow="0">
      <root>
        <mxCell id="0" />
        <mxCell id="1" parent="0" />
        <mxCell id="juQlZwff0E2Timq0JEoc-14" value="" style="edgeStyle=orthogonalEdgeStyle;rounded=0;orthogonalLoop=1;jettySize=auto;html=1;endArrow=none;endFill=0;entryX=0;entryY=0.5;entryDx=0;entryDy=0;" edge="1" parent="1" source="juQlZwff0E2Timq0JEoc-1" target="juQlZwff0E2Timq0JEoc-3">
          <mxGeometry relative="1" as="geometry">
            <mxPoint x="275" y="70" as="targetPoint" />
          </mxGeometry>
        </mxCell>
        <mxCell id="juQlZwff0E2Timq0JEoc-17" style="edgeStyle=orthogonalEdgeStyle;orthogonalLoop=1;jettySize=auto;html=1;exitX=0.25;exitY=1;exitDx=0;exitDy=0;entryX=0.5;entryY=0;entryDx=0;entryDy=0;endArrow=none;endFill=0;rounded=1;" edge="1" parent="1" source="juQlZwff0E2Timq0JEoc-1" target="juQlZwff0E2Timq0JEoc-2">
          <mxGeometry relative="1" as="geometry">
            <Array as="points">
              <mxPoint x="172" y="110" />
            </Array>
          </mxGeometry>
        </mxCell>
        <mxCell id="juQlZwff0E2Timq0JEoc-22" value="" style="edgeStyle=orthogonalEdgeStyle;orthogonalLoop=1;jettySize=auto;html=1;endArrow=none;endFill=0;entryX=0.5;entryY=0;entryDx=0;entryDy=0;rounded=1;" edge="1" parent="1" source="juQlZwff0E2Timq0JEoc-1" target="juQlZwff0E2Timq0JEoc-23">
          <mxGeometry relative="1" as="geometry">
            <mxPoint x="240" y="200" as="targetPoint" />
            <Array as="points">
              <mxPoint x="195" y="170" />
              <mxPoint x="515" y="170" />
            </Array>
          </mxGeometry>
        </mxCell>
        <mxCell id="juQlZwff0E2Timq0JEoc-31" style="edgeStyle=orthogonalEdgeStyle;orthogonalLoop=1;jettySize=auto;html=1;endArrow=none;endFill=0;rounded=1;" edge="1" parent="1" source="juQlZwff0E2Timq0JEoc-1" target="juQlZwff0E2Timq0JEoc-30">
          <mxGeometry relative="1" as="geometry" />
        </mxCell>
        <mxCell id="juQlZwff0E2Timq0JEoc-1" value="Заказы" style="rounded=0;whiteSpace=wrap;html=1;" vertex="1" parent="1">
          <mxGeometry x="150" y="50" width="90" height="40" as="geometry" />
        </mxCell>
        <mxCell id="juQlZwff0E2Timq0JEoc-2" value="Номер" style="ellipse;whiteSpace=wrap;html=1;" vertex="1" parent="1">
          <mxGeometry x="110" y="110" width="60" height="40" as="geometry" />
        </mxCell>
        <mxCell id="juQlZwff0E2Timq0JEoc-12" value="" style="edgeStyle=orthogonalEdgeStyle;rounded=0;orthogonalLoop=1;jettySize=auto;html=1;entryX=1.066;entryY=1.1;entryDx=0;entryDy=0;entryPerimeter=0;endArrow=none;endFill=0;" edge="1" parent="1" source="juQlZwff0E2Timq0JEoc-3" target="juQlZwff0E2Timq0JEoc-8">
          <mxGeometry relative="1" as="geometry">
            <mxPoint x="515" y="70" as="targetPoint" />
            <Array as="points">
              <mxPoint x="490" y="72" />
              <mxPoint x="490" y="72" />
            </Array>
          </mxGeometry>
        </mxCell>
        <mxCell id="juQlZwff0E2Timq0JEoc-3" value="Меню" style="rounded=0;whiteSpace=wrap;html=1;" vertex="1" parent="1">
          <mxGeometry x="375" y="50" width="80" height="40" as="geometry" />
        </mxCell>
        <mxCell id="juQlZwff0E2Timq0JEoc-21" value="" style="edgeStyle=orthogonalEdgeStyle;orthogonalLoop=1;jettySize=auto;html=1;endArrow=none;endFill=0;entryX=0;entryY=1;entryDx=0;entryDy=0;rounded=1;" edge="1" parent="1" source="juQlZwff0E2Timq0JEoc-4" target="juQlZwff0E2Timq0JEoc-3">
          <mxGeometry relative="1" as="geometry" />
        </mxCell>
        <mxCell id="juQlZwff0E2Timq0JEoc-4" value="Название" style="ellipse;whiteSpace=wrap;html=1;" vertex="1" parent="1">
          <mxGeometry x="315" y="120" width="60" height="40" as="geometry" />
        </mxCell>
        <mxCell id="juQlZwff0E2Timq0JEoc-19" value="" style="edgeStyle=orthogonalEdgeStyle;orthogonalLoop=1;jettySize=auto;html=1;endArrow=none;endFill=0;rounded=1;" edge="1" parent="1" source="juQlZwff0E2Timq0JEoc-5" target="juQlZwff0E2Timq0JEoc-3">
          <mxGeometry relative="1" as="geometry" />
        </mxCell>
        <mxCell id="juQlZwff0E2Timq0JEoc-5" value="Цена" style="ellipse;whiteSpace=wrap;html=1;" vertex="1" parent="1">
          <mxGeometry x="380" y="120" width="70" height="40" as="geometry" />
        </mxCell>
        <mxCell id="juQlZwff0E2Timq0JEoc-20" style="edgeStyle=orthogonalEdgeStyle;orthogonalLoop=1;jettySize=auto;html=1;endArrow=none;endFill=0;entryX=1;entryY=0.75;entryDx=0;entryDy=0;rounded=1;" edge="1" parent="1" source="juQlZwff0E2Timq0JEoc-6" target="juQlZwff0E2Timq0JEoc-3">
          <mxGeometry relative="1" as="geometry">
            <mxPoint x="490" y="90" as="targetPoint" />
            <Array as="points">
              <mxPoint x="480" y="130" />
              <mxPoint x="480" y="80" />
            </Array>
          </mxGeometry>
        </mxCell>
        <mxCell id="juQlZwff0E2Timq0JEoc-6" value="Состав" style="ellipse;whiteSpace=wrap;html=1;" vertex="1" parent="1">
          <mxGeometry x="455" y="120" width="70" height="40" as="geometry" />
        </mxCell>
        <mxCell id="juQlZwff0E2Timq0JEoc-27" value="" style="edgeStyle=orthogonalEdgeStyle;orthogonalLoop=1;jettySize=auto;html=1;endArrow=none;endFill=0;rounded=1;" edge="1" parent="1" source="juQlZwff0E2Timq0JEoc-7" target="juQlZwff0E2Timq0JEoc-26">
          <mxGeometry relative="1" as="geometry">
            <Array as="points">
              <mxPoint x="595" y="100" />
              <mxPoint x="595" y="100" />
            </Array>
          </mxGeometry>
        </mxCell>
        <mxCell id="juQlZwff0E2Timq0JEoc-28" style="edgeStyle=orthogonalEdgeStyle;orthogonalLoop=1;jettySize=auto;html=1;exitX=0.75;exitY=1;exitDx=0;exitDy=0;endArrow=none;endFill=0;entryX=0.5;entryY=0;entryDx=0;entryDy=0;rounded=1;" edge="1" parent="1" source="juQlZwff0E2Timq0JEoc-7" target="juQlZwff0E2Timq0JEoc-29">
          <mxGeometry relative="1" as="geometry">
            <mxPoint x="670" y="130" as="targetPoint" />
          </mxGeometry>
        </mxCell>
        <mxCell id="juQlZwff0E2Timq0JEoc-7" value="Промокоды" style="rounded=0;whiteSpace=wrap;html=1;" vertex="1" parent="1">
          <mxGeometry x="590" y="50" width="80" height="40" as="geometry" />
        </mxCell>
        <mxCell id="juQlZwff0E2Timq0JEoc-8" value="1" style="text;html=1;align=center;verticalAlign=middle;resizable=0;points=[];autosize=1;" vertex="1" parent="1">
          <mxGeometry x="570" y="50" width="20" height="20" as="geometry" />
        </mxCell>
        <mxCell id="juQlZwff0E2Timq0JEoc-9" value="N" style="text;html=1;align=center;verticalAlign=middle;resizable=0;points=[];autosize=1;" vertex="1" parent="1">
          <mxGeometry x="455" y="50" width="20" height="20" as="geometry" />
        </mxCell>
        <mxCell id="juQlZwff0E2Timq0JEoc-15" value="N" style="text;html=1;align=center;verticalAlign=middle;resizable=0;points=[];autosize=1;" vertex="1" parent="1">
          <mxGeometry x="355" y="50" width="20" height="20" as="geometry" />
        </mxCell>
        <mxCell id="juQlZwff0E2Timq0JEoc-16" value="N" style="text;html=1;align=center;verticalAlign=middle;resizable=0;points=[];autosize=1;" vertex="1" parent="1">
          <mxGeometry x="240" y="50" width="20" height="20" as="geometry" />
        </mxCell>
        <mxCell id="juQlZwff0E2Timq0JEoc-23" value="Сотрудник" style="rounded=0;whiteSpace=wrap;html=1;" vertex="1" parent="1">
          <mxGeometry x="470" y="290" width="90" height="40" as="geometry" />
        </mxCell>
        <mxCell id="juQlZwff0E2Timq0JEoc-24" value="N" style="text;html=1;align=center;verticalAlign=middle;resizable=0;points=[];autosize=1;" vertex="1" parent="1">
          <mxGeometry x="200" y="90" width="20" height="20" as="geometry" />
        </mxCell>
        <mxCell id="juQlZwff0E2Timq0JEoc-25" value="1" style="text;html=1;align=center;verticalAlign=middle;resizable=0;points=[];autosize=1;" vertex="1" parent="1">
          <mxGeometry x="520" y="270" width="20" height="20" as="geometry" />
        </mxCell>
        <mxCell id="juQlZwff0E2Timq0JEoc-26" value="Код" style="ellipse;whiteSpace=wrap;html=1;rounded=0;" vertex="1" parent="1">
          <mxGeometry x="570" y="120" width="50" height="30" as="geometry" />
        </mxCell>
        <mxCell id="juQlZwff0E2Timq0JEoc-29" value="Цена" style="ellipse;whiteSpace=wrap;html=1;rounded=0;" vertex="1" parent="1">
          <mxGeometry x="630" y="125" width="50" height="30" as="geometry" />
        </mxCell>
        <mxCell id="juQlZwff0E2Timq0JEoc-37" style="edgeStyle=orthogonalEdgeStyle;rounded=1;orthogonalLoop=1;jettySize=auto;html=1;endArrow=none;endFill=0;" edge="1" parent="1" source="juQlZwff0E2Timq0JEoc-30" target="juQlZwff0E2Timq0JEoc-34">
          <mxGeometry relative="1" as="geometry" />
        </mxCell>
        <mxCell id="juQlZwff0E2Timq0JEoc-38" style="edgeStyle=orthogonalEdgeStyle;rounded=1;orthogonalLoop=1;jettySize=auto;html=1;exitX=0.75;exitY=1;exitDx=0;exitDy=0;endArrow=none;endFill=0;" edge="1" parent="1" source="juQlZwff0E2Timq0JEoc-30" target="juQlZwff0E2Timq0JEoc-35">
          <mxGeometry relative="1" as="geometry" />
        </mxCell>
        <mxCell id="juQlZwff0E2Timq0JEoc-39" style="edgeStyle=orthogonalEdgeStyle;rounded=1;orthogonalLoop=1;jettySize=auto;html=1;exitX=0.25;exitY=1;exitDx=0;exitDy=0;endArrow=none;endFill=0;" edge="1" parent="1" source="juQlZwff0E2Timq0JEoc-30" target="juQlZwff0E2Timq0JEoc-36">
          <mxGeometry relative="1" as="geometry" />
        </mxCell>
        <mxCell id="juQlZwff0E2Timq0JEoc-41" value="" style="edgeStyle=orthogonalEdgeStyle;rounded=1;orthogonalLoop=1;jettySize=auto;html=1;endArrow=none;endFill=0;" edge="1" parent="1" source="juQlZwff0E2Timq0JEoc-30" target="juQlZwff0E2Timq0JEoc-40">
          <mxGeometry relative="1" as="geometry" />
        </mxCell>
        <mxCell id="juQlZwff0E2Timq0JEoc-30" value="Карта-заведения" style="rounded=0;whiteSpace=wrap;html=1;" vertex="1" parent="1">
          <mxGeometry x="50" y="190" width="80" height="40" as="geometry" />
        </mxCell>
        <mxCell id="juQlZwff0E2Timq0JEoc-32" value="N" style="text;html=1;align=center;verticalAlign=middle;resizable=0;points=[];autosize=1;" vertex="1" parent="1">
          <mxGeometry x="130" y="50" width="20" height="20" as="geometry" />
        </mxCell>
        <mxCell id="juQlZwff0E2Timq0JEoc-33" value="1" style="text;html=1;align=center;verticalAlign=middle;resizable=0;points=[];autosize=1;" vertex="1" parent="1">
          <mxGeometry x="70" y="170" width="20" height="20" as="geometry" />
        </mxCell>
        <mxCell id="juQlZwff0E2Timq0JEoc-34" value="Номер" style="ellipse;whiteSpace=wrap;html=1;" vertex="1" parent="1">
          <mxGeometry x="60" y="300" width="60" height="40" as="geometry" />
        </mxCell>
        <mxCell id="juQlZwff0E2Timq0JEoc-35" value="Количество&lt;br&gt;заказов" style="ellipse;whiteSpace=wrap;html=1;" vertex="1" parent="1">
          <mxGeometry x="100" y="260" width="80" height="40" as="geometry" />
        </mxCell>
        <mxCell id="juQlZwff0E2Timq0JEoc-36" value="Накоплено" style="ellipse;whiteSpace=wrap;html=1;" vertex="1" parent="1">
          <mxGeometry x="10" y="260" width="70" height="50" as="geometry" />
        </mxCell>
        <mxCell id="juQlZwff0E2Timq0JEoc-40" value="Клиент" style="whiteSpace=wrap;html=1;rounded=0;" vertex="1" parent="1">
          <mxGeometry x="225" y="195" width="70" height="30" as="geometry" />
        </mxCell>
        <mxCell id="juQlZwff0E2Timq0JEoc-42" value="1" style="text;html=1;align=center;verticalAlign=middle;resizable=0;points=[];autosize=1;" vertex="1" parent="1">
          <mxGeometry x="205" y="190" width="20" height="20" as="geometry" />
        </mxCell>
        <mxCell id="juQlZwff0E2Timq0JEoc-43" value="1" style="text;html=1;align=center;verticalAlign=middle;resizable=0;points=[];autosize=1;" vertex="1" parent="1">
          <mxGeometry x="130" y="190" width="20" height="20" as="geometry" />
        </mxCell>
      </root>
    </mxGraphModel>
  </diagram>
</mxfile>
